<?xml version="1.0" encoding="UTF-8"?>
<!DOCTYPE svg PUBLIC "-//W3C//DTD SVG 1.1//EN" "http://www.w3.org/Graphics/SVG/1.1/DTD/svg11.dtd">
<svg xmlns="http://www.w3.org/2000/svg" version="1.1" width="500px" height="500px" style="shape-rendering:geometricPrecision; text-rendering:geometricPrecision; image-rendering:optimizeQuality; fill-rule:evenodd; clip-rule:evenodd" xmlns:xlink="http://www.w3.org/1999/xlink">
<g><path style="opacity:1" fill="#0b0b0b" d="M 378.5,187.5 C 378.427,189.027 379.094,190.027 380.5,190.5C 383.717,197.241 382.717,203.407 377.5,209C 371.983,211.865 366.317,212.198 360.5,210C 323.667,173.167 286.833,136.333 250,99.5C 213.805,135.361 177.972,171.528 142.5,208C 135.5,212.667 128.5,212.667 121.5,208C 117.355,202.681 116.522,196.848 119,190.5C 134.304,174.195 149.971,158.195 166,142.5C 166.333,125.167 166.667,107.833 167,90.5C 167.232,89.2625 167.732,88.2625 168.5,87.5C 169.906,87.0269 170.573,86.0269 170.5,84.5C 176.849,80.0222 182.682,80.6888 188,86.5C 189.128,88.3453 189.628,90.3453 189.5,92.5C 189.334,101.506 189.5,110.506 190,119.5C 190.717,118.956 191.217,118.289 191.5,117.5C 210.298,98.2014 229.298,79.0347 248.5,60C 249.5,59.3333 250.5,59.3333 251.5,60C 294.035,102.368 336.368,144.868 378.5,187.5 Z"/></g>
<g><path style="opacity:0.6" fill="#818181" d="M 170.5,84.5 C 170.573,86.0269 169.906,87.0269 168.5,87.5C 168.427,85.9731 169.094,84.9731 170.5,84.5 Z"/></g>
<g><path style="opacity:0.146" fill="#d6d6d6" d="M 189.5,92.5 C 190.167,100.833 190.833,109.167 191.5,117.5C 191.217,118.289 190.717,118.956 190,119.5C 189.5,110.506 189.334,101.506 189.5,92.5 Z"/></g>
<g><path style="opacity:1" fill="#030303" d="M 353.5,339.5 C 342.167,339.5 330.833,339.5 319.5,339.5C 319.5,306.833 319.5,274.167 319.5,241.5C 300.992,241.17 282.659,241.503 264.5,242.5C 264.5,274.833 264.5,307.167 264.5,339.5C 225.167,339.5 185.833,339.5 146.5,339.5C 145.504,339.586 144.671,339.252 144,338.5C 143.333,300.833 143.333,263.167 144,225.5C 179.333,190.167 214.667,154.833 250,119.5C 285.667,155.167 321.333,190.833 357,226.5C 357.667,262.833 357.667,299.167 357,335.5C 356.943,337.91 355.776,339.244 353.5,339.5 Z M 229.5,287.5 C 213.5,287.5 197.5,287.5 181.5,287.5C 181.5,272.5 181.5,257.5 181.5,242.5C 197.5,242.5 213.5,242.5 229.5,242.5C 229.5,257.5 229.5,272.5 229.5,287.5 Z"/></g>
<g><path style="opacity:0.604" fill="#808080" d="M 378.5,187.5 C 379.906,187.973 380.573,188.973 380.5,190.5C 379.094,190.027 378.427,189.027 378.5,187.5 Z"/></g>
<g><path style="opacity:0.277" fill="#bfbfbf" d="M 264.5,242.5 C 282.659,241.503 300.992,241.17 319.5,241.5C 319.5,274.167 319.5,306.833 319.5,339.5C 330.833,339.5 342.167,339.5 353.5,339.5C 342.012,340.495 330.345,340.828 318.5,340.5C 318.5,307.833 318.5,275.167 318.5,242.5C 300.833,242.5 283.167,242.5 265.5,242.5C 265.167,242.5 264.833,242.5 264.5,242.5 Z"/></g>
<g><path style="opacity:0.31" fill="#aaaaaa" d="M 229.5,287.5 C 229.5,272.5 229.5,257.5 229.5,242.5C 213.5,242.5 197.5,242.5 181.5,242.5C 181.5,257.5 181.5,272.5 181.5,287.5C 180.504,272.342 180.17,257.009 180.5,241.5C 197.167,241.5 213.833,241.5 230.5,241.5C 230.83,257.009 230.496,272.342 229.5,287.5 Z M 229.5,287.5 C 213.5,287.5 197.5,287.5 181.5,287.5C 181.5,272.5 181.5,257.5 181.5,242.5C 197.5,242.5 213.5,242.5 229.5,242.5C 229.5,257.5 229.5,272.5 229.5,287.5 Z"/></g>
<g><path style="opacity:0.118" fill="#dddddd" d="M 264.5,242.5 C 264.833,242.5 265.167,242.5 265.5,242.5C 265.5,275.167 265.5,307.833 265.5,340.5C 225.663,340.832 185.996,340.499 146.5,339.5C 185.833,339.5 225.167,339.5 264.5,339.5C 264.5,307.167 264.5,274.833 264.5,242.5 Z"/></g>
<g><path style="opacity:1" fill="#181818" d="M 255.5,355.5 C 255.427,357.027 256.094,358.027 257.5,358.5C 258.965,373.177 258.798,387.844 257,402.5C 255.457,404.378 253.624,405.878 251.5,407C 195.167,407.667 138.833,407.667 82.5,407C 79.0267,406.193 76.86,404.027 76,400.5C 75.3333,386.5 75.3333,372.5 76,358.5C 77.1667,355.333 79.3333,353.167 82.5,352C 138.5,351.333 194.5,351.333 250.5,352C 252.881,352.223 254.547,353.39 255.5,355.5 Z M 125.5,358.5 C 125.833,359.5 126.5,360.167 127.5,360.5C 127.278,363.076 125.945,363.91 123.5,363C 121.944,360.499 122.611,358.999 125.5,358.5 Z M 104.5,359.5 C 110.038,360.206 113.038,363.373 113.5,369C 113.006,372.008 111.673,374.508 109.5,376.5C 106.833,377.167 106.833,377.833 109.5,378.5C 116.067,384.293 116.067,390.127 109.5,396C 102.679,398.077 95.679,398.911 88.5,398.5C 88.5,385.5 88.5,372.5 88.5,359.5C 93.8333,359.5 99.1667,359.5 104.5,359.5 Z M 152.5,369.5 C 153.5,371.167 154.833,372.5 156.5,373.5C 156.893,375.284 157.559,376.95 158.5,378.5C 158.5,380.5 158.5,382.5 158.5,384.5C 151.833,384.5 145.167,384.5 138.5,384.5C 138.232,386.099 138.566,387.432 139.5,388.5C 141.26,394.55 145.26,396.717 151.5,395C 153.286,394.215 154.786,393.049 156,391.5C 157.951,393.137 157.784,394.637 155.5,396C 149.162,399.499 143.162,398.999 137.5,394.5C 137.573,392.973 136.906,391.973 135.5,391.5C 132.04,379.991 135.874,372.324 147,368.5C 148.766,369.233 150.599,369.567 152.5,369.5 Z M 183.5,369.5 C 184.167,370.833 185.167,371.833 186.5,372.5C 187.442,381.113 187.775,389.779 187.5,398.5C 186.167,398.5 184.833,398.5 183.5,398.5C 183.666,390.493 183.5,382.493 183,374.5C 180.159,372.496 176.993,371.996 173.5,373C 172,373.833 170.833,375 170,376.5C 169.5,383.826 169.334,391.159 169.5,398.5C 168.167,398.5 166.833,398.5 165.5,398.5C 165.5,388.833 165.5,379.167 165.5,369.5C 166.833,369.5 168.167,369.5 169.5,369.5C 169.281,370.675 169.614,371.675 170.5,372.5C 171.107,372.376 171.44,372.043 171.5,371.5C 175.229,368.917 179.229,368.25 183.5,369.5 Z M 219.5,384.5 C 212.833,384.5 206.167,384.5 199.5,384.5C 199.216,386.415 199.549,388.081 200.5,389.5C 202.483,394.492 206.15,396.325 211.5,395C 213.407,393.878 215.407,393.045 217.5,392.5C 217.5,393.5 217.5,394.5 217.5,395.5C 215.973,395.427 214.973,396.094 214.5,397.5C 209.109,399.253 204.109,398.587 199.5,395.5C 198.833,394.167 197.833,393.167 196.5,392.5C 192.245,380.791 195.745,372.791 207,368.5C 215.672,370.13 219.839,375.464 219.5,384.5 Z M 234.5,368.5 C 240.885,368.35 245.218,371.183 247.5,377C 245.866,377.494 244.199,377.66 242.5,377.5C 242.276,373.452 240.109,371.785 236,372.5C 230.212,372.585 228.712,375.085 231.5,380C 236.792,381.206 241.625,383.372 246,386.5C 248.396,392.213 246.562,396.046 240.5,398C 232.764,399.879 227.43,397.212 224.5,390C 225.167,389.833 225.833,389.667 226.5,389.5C 228.713,391.338 231.046,393.171 233.5,395C 237.18,396.027 240.347,395.194 243,392.5C 243.825,390.299 243.325,388.466 241.5,387C 237.103,385.485 232.77,383.818 228.5,382C 225.455,379.552 224.955,376.719 227,373.5C 229.17,371.177 231.67,369.51 234.5,368.5 Z M 122.5,369.5 C 123.833,369.5 125.167,369.5 126.5,369.5C 126.5,379.167 126.5,388.833 126.5,398.5C 125.167,398.5 123.833,398.5 122.5,398.5C 122.5,388.833 122.5,379.167 122.5,369.5 Z"/></g>
<g><path style="opacity:0.392" fill="#9c9c9c" d="M 255.5,355.5 C 256.906,355.973 257.573,356.973 257.5,358.5C 256.094,358.027 255.427,357.027 255.5,355.5 Z"/></g>
<g><path style="opacity:0.51" fill="#bbbbbb" d="M 125.5,358.5 C 126.833,358.5 127.5,359.167 127.5,360.5C 126.5,360.167 125.833,359.5 125.5,358.5 Z"/></g>
<g><path style="opacity:0.999" fill="#404040" d="M 327.5,357.5 C 332.651,357.654 333.984,359.82 331.5,364C 326.57,364.427 325.237,362.26 327.5,357.5 Z"/></g>
<g><path style="opacity:1" fill="#262626" d="M 261.5,358.5 C 268.175,358.334 274.842,358.5 281.5,359C 289.145,361.958 291.645,367.458 289,375.5C 287.518,377.98 285.685,380.147 283.5,382C 285.776,387.386 288.443,392.553 291.5,397.5C 289.167,398.833 286.833,398.833 284.5,397.5C 281.706,392.747 279.04,387.914 276.5,383C 273.854,382.503 271.187,382.336 268.5,382.5C 268.5,387.833 268.5,393.167 268.5,398.5C 266.167,398.5 263.833,398.5 261.5,398.5C 261.5,385.167 261.5,371.833 261.5,358.5 Z M 277.5,363.5 C 279.368,364.263 281.035,365.263 282.5,366.5C 283.369,368.717 283.702,371.05 283.5,373.5C 282.055,375.063 280.389,376.396 278.5,377.5C 275.167,377.5 271.833,377.5 268.5,377.5C 268.5,372.833 268.5,368.167 268.5,363.5C 271.5,363.5 274.5,363.5 277.5,363.5 Z"/></g>
<g><path style="opacity:1" fill="#0e0e0e" d="M 104.5,363.5 C 107.525,364.033 108.858,365.867 108.5,369C 108.859,372.799 107.192,374.966 103.5,375.5C 100.167,375.5 96.8333,375.5 93.5,375.5C 93.5,371.5 93.5,367.5 93.5,363.5C 97.1667,363.5 100.833,363.5 104.5,363.5 Z"/></g>
<g><path style="opacity:0.636" fill="#878787" d="M 104.5,363.5 C 100.833,363.5 97.1667,363.5 93.5,363.5C 93.5,367.5 93.5,371.5 93.5,375.5C 96.8333,375.5 100.167,375.5 103.5,375.5C 100.038,376.482 96.3714,376.815 92.5,376.5C 92.5,371.833 92.5,367.167 92.5,362.5C 96.7016,362.183 100.702,362.517 104.5,363.5 Z"/></g>
<g><path style="opacity:0.114" fill="#d8d8d8" d="M 104.5,359.5 C 99.1667,359.5 93.8333,359.5 88.5,359.5C 88.5,372.5 88.5,385.5 88.5,398.5C 87.5044,385.344 87.1711,372.01 87.5,358.5C 93.358,358.178 99.0247,358.511 104.5,359.5 Z"/></g>
<g><path style="opacity:0.999" fill="#2a2a2a" d="M 296.5,385.5 C 297.833,384.833 298.833,383.833 299.5,382.5C 299.918,381.778 300.584,381.278 301.5,381C 305.486,380.501 309.486,380.334 313.5,380.5C 312.821,374.172 309.488,371.838 303.5,373.5C 302.5,373.5 301.5,373.5 300.5,373.5C 300.5,374.5 300.5,375.5 300.5,376.5C 298.517,376.843 297.183,376.176 296.5,374.5C 298.583,369.944 302.25,367.611 307.5,367.5C 313.752,367.53 317.585,370.53 319,376.5C 319.185,383.747 319.685,390.913 320.5,398C 317.621,398.957 315.121,398.457 313,396.5C 307.067,400.7 301.4,400.367 296,395.5C 293.882,391.901 294.049,388.568 296.5,385.5 Z M 305.5,384.5 C 308.167,384.5 310.833,384.5 313.5,384.5C 313.432,392.187 309.765,395.02 302.5,393C 301.707,391.915 301.04,390.748 300.5,389.5C 301.577,387.15 303.244,385.483 305.5,384.5 Z"/></g>
<g><path style="opacity:0.999" fill="#2f2f2f" d="M 358.5,389.5 C 360.415,389.216 362.081,389.549 363.5,390.5C 360.966,398.097 355.633,400.93 347.5,399C 340.785,396.08 337.785,390.913 338.5,383.5C 338.117,374.24 342.45,368.907 351.5,367.5C 358.593,367.928 362.927,371.595 364.5,378.5C 362.5,379.833 360.5,379.833 358.5,378.5C 356.714,373.82 353.381,372.32 348.5,374C 344.695,378.091 343.528,382.924 345,388.5C 347.228,394.511 351.062,395.844 356.5,392.5C 357.425,391.643 358.092,390.643 358.5,389.5 Z"/></g>
<g><path style="opacity:1" fill="#252525" d="M 392.5,377.5 C 392.5,379.833 392.5,382.167 392.5,384.5C 385.978,384.177 379.645,384.51 373.5,385.5C 376.319,395.197 381.652,396.864 389.5,390.5C 390.183,390.863 390.85,391.196 391.5,391.5C 391.5,392.833 391.5,394.167 391.5,395.5C 389.042,398.307 385.875,399.641 382,399.5C 378.592,399.755 375.759,398.755 373.5,396.5C 373.027,395.094 372.027,394.427 370.5,394.5C 366.998,388.324 366.665,381.99 369.5,375.5C 370.906,375.027 371.573,374.027 371.5,372.5C 377.853,366.022 384.353,366.022 391,372.5C 392.009,374.025 392.509,375.692 392.5,377.5 Z M 387.5,378.5 C 383.627,380.43 379.294,381.097 374.5,380.5C 374.5,379.5 374.5,378.5 374.5,377.5C 376.749,373.748 380.082,372.581 384.5,374C 385.883,375.271 386.883,376.771 387.5,378.5 Z"/></g>
<g><path style="opacity:1" fill="#2d2d2d" d="M 420.5,374.5 C 420.5,375.5 420.5,376.5 420.5,377.5C 418.833,377.5 417.167,377.5 415.5,377.5C 414.967,374.475 413.133,373.142 410,373.5C 405.751,373.396 404.251,375.229 405.5,379C 410.928,380.305 415.928,382.472 420.5,385.5C 422.255,396.9 417.255,401.4 405.5,399C 401.829,398.181 399.495,396.015 398.5,392.5C 398.5,391.5 398.5,390.5 398.5,389.5C 400.167,389.5 401.833,389.5 403.5,389.5C 405.812,394.473 409.479,395.64 414.5,393C 415.833,391.333 415.833,389.667 414.5,388C 410.511,386.669 406.511,385.335 402.5,384C 398.612,381.194 397.612,377.694 399.5,373.5C 400.833,372.833 401.833,371.833 402.5,370.5C 407.214,366.745 412.214,366.579 417.5,370C 419.141,371.129 420.141,372.629 420.5,374.5 Z"/></g>
<g><path style="opacity:0.871" fill="#818181" d="M 152.5,369.5 C 154.833,369.833 156.167,371.167 156.5,373.5C 154.833,372.5 153.5,371.167 152.5,369.5 Z"/></g>
<g><path style="opacity:0.581" fill="#707070" d="M 171.5,371.5 C 171.44,372.043 171.107,372.376 170.5,372.5C 169.614,371.675 169.281,370.675 169.5,369.5C 168.167,369.5 166.833,369.5 165.5,369.5C 165.5,379.167 165.5,388.833 165.5,398.5C 164.506,388.681 164.173,378.681 164.5,368.5C 166.5,368.5 168.5,368.5 170.5,368.5C 170.263,369.791 170.596,370.791 171.5,371.5 Z"/></g>
<g><path style="opacity:0.686" fill="#a7a7a7" d="M 183.5,369.5 C 185.5,369.5 186.5,370.5 186.5,372.5C 185.167,371.833 184.167,370.833 183.5,369.5 Z"/></g>
<g><path style="opacity:0.322" fill="#7e7e7e" d="M 282.5,366.5 C 283.725,367.152 284.392,368.319 284.5,370C 284.486,371.385 284.152,372.551 283.5,373.5C 283.702,371.05 283.369,368.717 282.5,366.5 Z"/></g>
<g><path style="opacity:0.435" fill="#9f9f9f" d="M 402.5,370.5 C 401.833,371.833 400.833,372.833 399.5,373.5C 399.5,371.5 400.5,370.5 402.5,370.5 Z"/></g>
<g><path style="opacity:0.161" fill="#cecece" d="M 122.5,369.5 C 123.919,368.549 125.585,368.216 127.5,368.5C 127.827,378.681 127.494,388.681 126.5,398.5C 126.5,388.833 126.5,379.167 126.5,369.5C 125.167,369.5 123.833,369.5 122.5,369.5 Z"/></g>
<g><path style="opacity:1" fill="#161616" d="M 151.5,373.5 C 151.427,375.027 152.094,376.027 153.5,376.5C 153.5,376.833 153.5,377.167 153.5,377.5C 153.5,378.5 153.5,379.5 153.5,380.5C 148.637,380.819 143.97,380.486 139.5,379.5C 139.673,374.403 142.339,372.07 147.5,372.5C 149.045,372.511 150.378,372.844 151.5,373.5 Z"/></g>
<g><path style="opacity:0.999" fill="#171717" d="M 214.5,379.5 C 210.03,380.486 205.363,380.819 200.5,380.5C 200.5,379.5 200.5,378.5 200.5,377.5C 200.859,375.629 201.859,374.129 203.5,373C 210.075,370.724 213.742,372.891 214.5,379.5 Z"/></g>
<g><path style="opacity:0.361" fill="#a4a4a4" d="M 371.5,372.5 C 371.573,374.027 370.906,375.027 369.5,375.5C 369.427,373.973 370.094,372.973 371.5,372.5 Z"/></g>
<g><path style="opacity:0.408" fill="#a1a1a1" d="M 151.5,373.5 C 152.906,373.973 153.573,374.973 153.5,376.5C 152.094,376.027 151.427,375.027 151.5,373.5 Z"/></g>
<g><path style="opacity:0.584" fill="#737373" d="M 331.5,398.5 C 331.5,388.833 331.5,379.167 331.5,369.5C 330.167,369.5 328.833,369.5 327.5,369.5C 327.5,379.167 327.5,388.833 327.5,398.5C 326.506,388.681 326.173,378.681 326.5,368.5C 328.5,368.5 330.5,368.5 332.5,368.5C 332.827,378.681 332.494,388.681 331.5,398.5 Z"/></g>
<g><path style="opacity:1" fill="#000000" d="M 331.5,398.5 C 330.167,398.5 328.833,398.5 327.5,398.5C 327.5,388.833 327.5,379.167 327.5,369.5C 328.833,369.5 330.167,369.5 331.5,369.5C 331.5,379.167 331.5,388.833 331.5,398.5 Z"/></g>
<g><path style="opacity:0.616" fill="#6b6b6b" d="M 303.5,373.5 C 301.893,376.715 299.226,378.049 295.5,377.5C 295.263,376.209 295.596,375.209 296.5,374.5C 297.183,376.176 298.517,376.843 300.5,376.5C 300.5,375.5 300.5,374.5 300.5,373.5C 301.5,373.5 302.5,373.5 303.5,373.5 Z"/></g>
<g><path style="opacity:0.51" fill="#989898" d="M 109.5,376.5 C 109.5,377.167 109.5,377.833 109.5,378.5C 106.833,377.833 106.833,377.167 109.5,376.5 Z"/></g>
<g><path style="opacity:0.407" fill="#9f9f9f" d="M 277.5,363.5 C 274.5,363.5 271.5,363.5 268.5,363.5C 268.5,368.167 268.5,372.833 268.5,377.5C 271.833,377.5 275.167,377.5 278.5,377.5C 275.038,378.482 271.371,378.815 267.5,378.5C 267.5,373.167 267.5,367.833 267.5,362.5C 271.042,362.187 274.375,362.521 277.5,363.5 Z"/></g>
<g><path style="opacity:0.105" fill="#d3d3d3" d="M 420.5,374.5 C 421.434,375.568 421.768,376.901 421.5,378.5C 419.265,378.795 417.265,378.461 415.5,377.5C 417.167,377.5 418.833,377.5 420.5,377.5C 420.5,376.5 420.5,375.5 420.5,374.5 Z"/></g>
<g><path style="opacity:0.637" fill="#636363" d="M 105.5,380.5 C 101.5,380.5 97.5,380.5 93.5,380.5C 93.5,384.833 93.5,389.167 93.5,393.5C 97.5,393.5 101.5,393.5 105.5,393.5C 101.366,394.485 97.0323,394.818 92.5,394.5C 92.5,389.5 92.5,384.5 92.5,379.5C 97.0323,379.182 101.366,379.515 105.5,380.5 Z"/></g>
<g><path style="opacity:1" fill="#0d0d0d" d="M 105.5,380.5 C 108.897,381.258 110.23,383.425 109.5,387C 110.23,390.575 108.897,392.742 105.5,393.5C 101.5,393.5 97.5,393.5 93.5,393.5C 93.5,389.167 93.5,384.833 93.5,380.5C 97.5,380.5 101.5,380.5 105.5,380.5 Z"/></g>
<g><path style="opacity:0.503" fill="#8b8b8b" d="M 153.5,377.5 C 154.434,378.568 154.768,379.901 154.5,381.5C 149.125,381.828 143.792,381.495 138.5,380.5C 138.624,379.893 138.957,379.56 139.5,379.5C 143.97,380.486 148.637,380.819 153.5,380.5C 153.5,379.5 153.5,378.5 153.5,377.5 Z"/></g>
<g><path style="opacity:0.501" fill="#8c8c8c" d="M 200.5,377.5 C 200.5,378.5 200.5,379.5 200.5,380.5C 205.363,380.819 210.03,380.486 214.5,379.5C 215.043,379.56 215.376,379.893 215.5,380.5C 210.208,381.495 204.875,381.828 199.5,381.5C 199.232,379.901 199.566,378.568 200.5,377.5 Z"/></g>
<g><path style="opacity:0.501" fill="#878787" d="M 374.5,377.5 C 374.5,378.5 374.5,379.5 374.5,380.5C 379.294,381.097 383.627,380.43 387.5,378.5C 388.404,379.209 388.737,380.209 388.5,381.5C 383.5,381.5 378.5,381.5 373.5,381.5C 373.232,379.901 373.566,378.568 374.5,377.5 Z"/></g>
<g><path style="opacity:0.339" fill="#a8a8a8" d="M 158.5,378.5 C 159.468,380.607 159.802,382.941 159.5,385.5C 152.833,385.5 146.167,385.5 139.5,385.5C 139.5,386.5 139.5,387.5 139.5,388.5C 138.566,387.432 138.232,386.099 138.5,384.5C 145.167,384.5 151.833,384.5 158.5,384.5C 158.5,382.5 158.5,380.5 158.5,378.5 Z"/></g>
<g><path style="opacity:0.337" fill="#9f9f9f" d="M 219.5,384.5 C 213.355,385.49 207.022,385.823 200.5,385.5C 200.5,386.833 200.5,388.167 200.5,389.5C 199.549,388.081 199.216,386.415 199.5,384.5C 206.167,384.5 212.833,384.5 219.5,384.5 Z"/></g>
<g><path style="opacity:0.6" fill="#8e8e8e" d="M 299.5,382.5 C 298.833,383.833 297.833,384.833 296.5,385.5C 296.5,383.5 297.5,382.5 299.5,382.5 Z"/></g>
<g><path style="opacity:0.665" fill="#5d5d5d" d="M 392.5,377.5 C 393.473,379.948 393.806,382.615 393.5,385.5C 386.833,385.5 380.167,385.5 373.5,385.5C 379.645,384.51 385.978,384.177 392.5,384.5C 392.5,382.167 392.5,379.833 392.5,377.5 Z"/></g>
<g><path style="opacity:0.325" fill="#bbbbbb" d="M 358.5,389.5 C 360.364,388.207 362.364,388.207 364.5,389.5C 364.376,390.107 364.043,390.44 363.5,390.5C 362.081,389.549 360.415,389.216 358.5,389.5 Z"/></g>
<g><path style="opacity:0.093" fill="#cdcdcd" d="M 403.5,389.5 C 401.833,389.5 400.167,389.5 398.5,389.5C 398.5,390.5 398.5,391.5 398.5,392.5C 397.566,391.432 397.232,390.099 397.5,388.5C 399.735,388.205 401.735,388.539 403.5,389.5 Z"/></g>
<g><path style="opacity:0.761" fill="#9a9a9a" d="M 391.5,391.5 C 394.167,392.833 394.167,394.167 391.5,395.5C 391.5,394.167 391.5,392.833 391.5,391.5 Z"/></g>
<g><path style="opacity:0.467" fill="#9b9b9b" d="M 135.5,391.5 C 136.906,391.973 137.573,392.973 137.5,394.5C 136.094,394.027 135.427,393.027 135.5,391.5 Z"/></g>
<g><path style="opacity:0.886" fill="#808080" d="M 196.5,392.5 C 197.833,393.167 198.833,394.167 199.5,395.5C 197.5,395.5 196.5,394.5 196.5,392.5 Z"/></g>
<g><path style="opacity:0.733" fill="#7c7c7c" d="M 217.5,392.5 C 219.985,393.26 219.985,394.26 217.5,395.5C 217.5,394.5 217.5,393.5 217.5,392.5 Z"/></g>
<g><path style="opacity:0.714" fill="#909090" d="M 370.5,394.5 C 372.027,394.427 373.027,395.094 373.5,396.5C 371.973,396.573 370.973,395.906 370.5,394.5 Z"/></g>
<g><path style="opacity:0.737" fill="#7f7f7f" d="M 217.5,395.5 C 217.027,396.906 216.027,397.573 214.5,397.5C 214.973,396.094 215.973,395.427 217.5,395.5 Z"/></g>
</svg>
